<svg width="20" height="11" viewBox="0 0 20 11" fill="none" xmlns="http://www.w3.org/2000/svg">
<path d="M5.625 0.5C4.6361 0.5 3.6694 0.793245 2.84715 1.34265C2.02491 1.89206 1.38404 2.67295 1.0056 3.58658C0.627166 4.50021 0.52815 5.50555 0.721076 6.47545C0.914002 7.44536 1.39021 8.33627 2.08947 9.03553C2.78873 9.7348 3.67965 10.211 4.64955 10.4039C5.61946 10.5969 6.62479 10.4978 7.53842 10.1194C8.45205 9.74096 9.23294 9.1001 9.78235 8.27785C10.3318 7.45561 10.625 6.48891 10.625 5.5C10.6236 4.17436 10.0963 2.90343 9.15894 1.96607C8.22157 1.0287 6.95064 0.501448 5.625 0.5ZM5.625 9.25C4.88332 9.25 4.1583 9.03007 3.54161 8.61801C2.92493 8.20596 2.44428 7.62029 2.16045 6.93506C1.87663 6.24984 1.80236 5.49584 1.94706 4.76841C2.09175 4.04098 2.4489 3.3728 2.97335 2.84835C3.4978 2.3239 4.16599 1.96675 4.89341 1.82206C5.62084 1.67736 6.37484 1.75162 7.06007 2.03545C7.74529 2.31928 8.33096 2.79993 8.74301 3.41661C9.15507 4.0333 9.375 4.75832 9.375 5.5C9.37397 6.49424 8.97855 7.44747 8.27551 8.15051C7.57247 8.85355 6.61925 9.24897 5.625 9.25ZM14.375 0.5C13.9313 0.5 13.0938 0.715625 12.475 2.16016C12.0883 3.0625 11.875 4.25 11.875 5.5C11.875 6.75 12.0883 7.9375 12.475 8.83984C13.0938 10.2844 13.9313 10.5 14.375 10.5C14.8188 10.5 15.6563 10.2844 16.275 8.83984C16.6617 7.9375 16.875 6.75 16.875 5.5C16.875 4.25 16.6617 3.0625 16.275 2.16016C15.6563 0.715625 14.8188 0.5 14.375 0.5ZM14.375 9.25C13.9344 9.25 13.125 7.82656 13.125 5.5C13.125 3.17344 13.9344 1.75 14.375 1.75C14.8156 1.75 15.625 3.17344 15.625 5.5C15.625 7.82656 14.8156 9.25 14.375 9.25ZM19.375 1.125V9.875C19.375 10.0408 19.3092 10.1997 19.1919 10.3169C19.0747 10.4342 18.9158 10.5 18.75 10.5C18.5842 10.5 18.4253 10.4342 18.3081 10.3169C18.1908 10.1997 18.125 10.0408 18.125 9.875V1.125C18.125 0.95924 18.1908 0.800269 18.3081 0.683058C18.4253 0.565848 18.5842 0.5 18.75 0.5C18.9158 0.5 19.0747 0.565848 19.1919 0.683058C19.3092 0.800269 19.375 0.95924 19.375 1.125Z" fill="#4E616B"/>
</svg>
