<svg width="18" height="17" viewBox="0 0 18 17" fill="none" xmlns="http://www.w3.org/2000/svg">
<path d="M9 4.75C8.25832 4.75 7.5333 4.96993 6.91661 5.38199C6.29993 5.79404 5.81928 6.37971 5.53545 7.06494C5.25162 7.75016 5.17736 8.50416 5.32206 9.23159C5.46675 9.95902 5.8239 10.6272 6.34835 11.1517C6.8728 11.6761 7.54098 12.0333 8.26841 12.1779C8.99584 12.3226 9.74984 12.2484 10.4351 11.9645C11.1203 11.6807 11.706 11.2001 12.118 10.5834C12.5301 9.9667 12.75 9.24168 12.75 8.5C12.749 7.50576 12.3535 6.55253 11.6505 5.84949C10.9475 5.14645 9.99424 4.75103 9 4.75ZM9 11C8.50555 11 8.0222 10.8534 7.61107 10.5787C7.19995 10.304 6.87952 9.91352 6.6903 9.45671C6.50108 8.99989 6.45157 8.49723 6.54804 8.01227C6.6445 7.52732 6.8826 7.08186 7.23223 6.73223C7.58186 6.3826 8.02732 6.1445 8.51227 6.04804C8.99723 5.95157 9.49989 6.00108 9.95671 6.1903C10.4135 6.37952 10.804 6.69995 11.0787 7.11107C11.3534 7.5222 11.5 8.00555 11.5 8.5C11.5 9.16304 11.2366 9.79893 10.7678 10.2678C10.2989 10.7366 9.66304 11 9 11ZM12.75 0.375H5.25C4.09006 0.376241 2.97798 0.837576 2.15778 1.65778C1.33758 2.47798 0.876241 3.59006 0.875 4.75V12.25C0.876241 13.4099 1.33758 14.522 2.15778 15.3422C2.97798 16.1624 4.09006 16.6238 5.25 16.625H12.75C13.9099 16.6238 15.022 16.1624 15.8422 15.3422C16.6624 14.522 17.1238 13.4099 17.125 12.25V4.75C17.1238 3.59006 16.6624 2.47798 15.8422 1.65778C15.022 0.837576 13.9099 0.376241 12.75 0.375ZM15.875 12.25C15.875 13.0788 15.5458 13.8737 14.9597 14.4597C14.3737 15.0458 13.5788 15.375 12.75 15.375H5.25C4.4212 15.375 3.62634 15.0458 3.04029 14.4597C2.45424 13.8737 2.125 13.0788 2.125 12.25V4.75C2.125 3.9212 2.45424 3.12634 3.04029 2.54029C3.62634 1.95424 4.4212 1.625 5.25 1.625H12.75C13.5788 1.625 14.3737 1.95424 14.9597 2.54029C15.5458 3.12634 15.875 3.9212 15.875 4.75V12.25ZM14 4.4375C14 4.62292 13.945 4.80418 13.842 4.95835C13.739 5.11252 13.5926 5.23268 13.4213 5.30364C13.25 5.37459 13.0615 5.39316 12.8796 5.35699C12.6977 5.32081 12.5307 5.23152 12.3996 5.10041C12.2685 4.9693 12.1792 4.80225 12.143 4.6204C12.1068 4.43854 12.1254 4.25004 12.1964 4.07873C12.2673 3.90743 12.3875 3.76101 12.5417 3.658C12.6958 3.55498 12.8771 3.5 13.0625 3.5C13.3111 3.5 13.5496 3.59877 13.7254 3.77459C13.9012 3.9504 14 4.18886 14 4.4375Z" fill="#4E616B"/>
</svg>
