<svg width="114" height="29" viewBox="0 0 114 29" fill="none" xmlns="http://www.w3.org/2000/svg">
<path d="M11.543 14.1133C11.5951 14.1523 11.7448 14.1719 11.9922 14.1719C12.2396 14.1719 12.4284 14.0742 12.5586 13.8789C12.6888 13.6836 12.7539 13.3646 12.7539 12.9219V12.2188C12.7539 11.75 12.6953 11.418 12.5781 11.2227C12.474 11.0143 12.2917 10.9102 12.0312 10.9102C11.7839 10.9102 11.6146 10.9362 11.5234 10.9883C11.5365 11.0534 11.543 11.1641 11.543 11.3203V14.1133ZM21.6211 18.5664L25 22.0234C24.7656 24.0547 24.1211 25.6172 23.0664 26.7109C22.0247 27.8047 20.5794 28.3516 18.7305 28.3516C17.3372 28.3516 16.1263 28.0195 15.0977 27.3555C13.7826 26.5221 12.7995 25.194 12.1484 23.3711L11.4453 21.457C10.8984 21.444 10.2083 21.3724 9.375 21.2422C9.27083 21.3464 9.21875 21.4896 9.21875 21.6719C9.21875 22.0234 9.74609 22.2318 10.8008 22.2969L11.9141 25.1094V26.7695C10.4167 27.8242 8.49609 28.3516 6.15234 28.3516C4.47266 28.3516 3.13151 28.0065 2.12891 27.3164C1.1263 26.6263 0.625 25.6237 0.625 24.3086V5.75391C0.625 5.18099 1.15234 4.6276 2.20703 4.09375C3.26172 3.54688 4.64193 3.11068 6.34766 2.78516C8.05339 2.44661 9.75911 2.27734 11.4648 2.27734C15.3711 2.27734 18.4245 3.07812 20.625 4.67969C22.9427 6.35938 24.1016 8.72266 24.1016 11.7695C24.1016 13.5143 23.6068 15.0117 22.6172 16.2617C21.6406 17.4987 20.4036 18.3581 18.9062 18.8398C18.9062 19.2565 19.1536 19.4648 19.6484 19.4648C20.1562 19.4648 20.8138 19.1654 21.6211 18.5664ZM36.7383 28.6055C33.1315 28.6055 30.2865 27.6029 28.2031 25.5977C26.0677 23.5794 25 20.819 25 17.3164C25 13.8008 26.1003 11.0143 28.3008 8.95703C30.332 7.04297 32.9036 6.08594 36.0156 6.08594C39.1276 6.08594 41.6211 6.94531 43.4961 8.66406C45.3841 10.3698 46.3281 12.4727 46.3281 14.9727C46.3281 17.1992 45.5534 18.8789 44.0039 20.0117C42.5716 21.0794 40.6185 21.6133 38.1445 21.6133C36.2956 21.6133 34.7331 21.2292 33.457 20.4609C33.3529 20.5391 33.3008 20.6823 33.3008 20.8906C33.3008 21.2812 33.8151 21.6393 34.8438 21.9648C35.8724 22.3164 37.0378 22.4922 38.3398 22.4922C39.6549 22.4922 40.8464 22.3294 41.9141 22.0039C42.9948 21.6654 43.8607 21.2682 44.5117 20.8125C44.8242 21.0859 45.0716 21.5938 45.2539 22.3359C45.4492 23.0651 45.5469 23.7357 45.5469 24.3477C45.5469 24.9466 45.4883 25.4805 45.3711 25.9492C44.3555 26.8086 43.3138 27.4206 42.2461 27.7852C40.7357 28.332 38.8997 28.6055 36.7383 28.6055ZM36.4844 15.3828C37.1354 15.3828 37.4609 15.1354 37.4609 14.6406C37.4609 14.1719 37.1159 13.9375 36.4258 13.9375C35.7357 13.9375 35.3385 14.3086 35.2344 15.0508C35.599 15.2721 36.0156 15.3828 36.4844 15.3828ZM58.8477 28.6055C55.2409 28.6055 52.3958 27.6029 50.3125 25.5977C48.1771 23.5794 47.1094 20.819 47.1094 17.3164C47.1094 13.8008 48.2096 11.0143 50.4102 8.95703C52.4414 7.04297 55.013 6.08594 58.125 6.08594C61.237 6.08594 63.7305 6.94531 65.6055 8.66406C67.4935 10.3698 68.4375 12.4727 68.4375 14.9727C68.4375 17.1992 67.6628 18.8789 66.1133 20.0117C64.681 21.0794 62.7279 21.6133 60.2539 21.6133C58.4049 21.6133 56.8424 21.2292 55.5664 20.4609C55.4622 20.5391 55.4102 20.6823 55.4102 20.8906C55.4102 21.2812 55.9245 21.6393 56.9531 21.9648C57.9818 22.3164 59.1471 22.4922 60.4492 22.4922C61.7643 22.4922 62.9557 22.3294 64.0234 22.0039C65.1042 21.6654 65.9701 21.2682 66.6211 20.8125C66.9336 21.0859 67.181 21.5938 67.3633 22.3359C67.5586 23.0651 67.6562 23.7357 67.6562 24.3477C67.6562 24.9466 67.5977 25.4805 67.4805 25.9492C66.4648 26.8086 65.4232 27.4206 64.3555 27.7852C62.8451 28.332 61.0091 28.6055 58.8477 28.6055ZM58.5938 15.3828C59.2448 15.3828 59.5703 15.1354 59.5703 14.6406C59.5703 14.1719 59.2253 13.9375 58.5352 13.9375C57.8451 13.9375 57.4479 14.3086 57.3438 15.0508C57.7083 15.2721 58.125 15.3828 58.5938 15.3828ZM79.2578 20.6562L78.3203 21.0664C78.3203 21.9388 78.4896 22.8698 78.8281 23.8594C79.1146 24.7969 79.5117 25.6302 80.0195 26.3594C78.7305 27.6875 76.9401 28.3516 74.6484 28.3516C73.3333 28.3516 72.194 28.0065 71.2305 27.3164C70.1107 26.5352 69.5508 25.5 69.5508 24.2109V1.41797C70.1758 1.05339 70.9245 0.753906 71.7969 0.519531C72.6823 0.285156 73.5742 0.167969 74.4727 0.167969C75.9701 0.167969 77.207 0.460938 78.1836 1.04688C79.2904 1.73698 79.8438 2.72656 79.8438 4.01562V6.08594C79.8438 7.81771 79.5378 9.51042 78.9258 11.1641C78.8086 11.3333 78.6003 11.5807 78.3008 11.9062C78.0013 12.2188 77.7604 12.5052 77.5781 12.7656C77.4089 13.026 77.3242 13.2539 77.3242 13.4492C77.3242 13.6315 77.4805 13.8008 77.793 13.957C78.8086 13.0065 79.6029 11.9714 80.1758 10.8516C80.7617 9.73177 81.2956 8.2474 81.7773 6.39844C81.9466 6.3724 82.1419 6.33984 82.3633 6.30078C82.5846 6.26172 82.9492 6.20312 83.457 6.125C83.9779 6.03385 84.3424 5.98828 84.5508 5.98828C86.556 5.98828 88.1185 6.45052 89.2383 7.375C90.3581 8.28646 90.918 9.54297 90.918 11.1445C90.918 12.7461 90.4102 14.1198 89.3945 15.2656C88.457 16.2943 87.2396 17.069 85.7422 17.5898C86.9401 18.293 88.4505 18.7943 90.2734 19.0938C90.9766 20.3698 91.3281 21.7305 91.3281 23.1758C91.3281 24.6081 90.8724 25.806 89.9609 26.7695C88.9453 27.8242 87.5391 28.3516 85.7422 28.3516C83.9583 28.3516 82.487 27.668 81.3281 26.3008C80.1823 24.9206 79.4922 23.0391 79.2578 20.6562ZM111.934 18.332C111.934 19.2695 112.038 20.0247 112.246 20.5977C112.454 21.1706 112.819 21.6198 113.34 21.9453C113.353 22.0104 113.359 22.1341 113.359 22.3164V22.668C113.359 24.5169 112.799 25.9557 111.68 26.9844C110.69 27.8958 109.466 28.3516 108.008 28.3516C107.018 28.3516 106.113 28.1172 105.293 27.6484C104.473 27.1797 103.887 26.5026 103.535 25.6172C103.092 25.6172 102.871 25.832 102.871 26.2617C102.871 26.6263 103.099 27.0365 103.555 27.4922C102.708 28.0651 101.432 28.3516 99.7266 28.3516C97.3177 28.3516 95.3906 27.7005 93.9453 26.3984C92.513 25.0833 91.7969 23.2539 91.7969 20.9102C91.7969 18.5534 92.5586 16.7305 94.082 15.4414C95.4753 14.2826 97.2786 13.7031 99.4922 13.7031C100.247 13.7031 100.977 13.7552 101.68 13.8594C102.148 13.9505 102.402 14.0026 102.441 14.0156C102.48 13.8854 102.5 13.7747 102.5 13.6836C102.5 13.3451 102.214 13.1172 101.641 13C101.068 12.8828 100.319 12.8242 99.3945 12.8242C97.4284 12.8242 95.7487 13.2214 94.3555 14.0156C93.7174 12.9349 93.3984 11.5677 93.3984 9.91406C93.3984 8.97656 93.5156 8.27995 93.75 7.82422C94.6875 7.39453 95.8789 7.01693 97.3242 6.69141C98.7695 6.35286 100.293 6.18359 101.895 6.18359C105.202 6.18359 107.702 6.90625 109.395 8.35156C111.087 9.79688 111.934 11.8477 111.934 14.5039V18.332ZM101.797 19.2891C101.25 19.2891 100.977 19.5365 100.977 20.0312C100.977 20.5 101.296 20.7344 101.934 20.7344C102.376 20.7344 102.702 20.6302 102.91 20.4219C103.118 20.2005 103.223 19.8229 103.223 19.2891C103.223 19.2891 102.747 19.2891 101.797 19.2891Z" fill="white"/>
</svg>
