<svg width="18" height="16" viewBox="0 0 18 16" fill="none" xmlns="http://www.w3.org/2000/svg">
<path d="M17.3273 2.88576C17.2801 2.77155 17.2 2.67393 17.0972 2.60523C16.9944 2.53653 16.8736 2.49985 16.75 2.49983H14.3727C14.0403 1.93434 13.5672 1.46448 12.9995 1.13592C12.4318 0.807368 11.7887 0.631296 11.1328 0.624827C10.6442 0.618417 10.1591 0.709806 9.70633 0.893617C9.25351 1.07743 8.84203 1.34995 8.49609 1.69514C8.14006 2.04453 7.85746 2.46158 7.66494 2.92177C7.47241 3.38196 7.37383 3.87599 7.375 4.37483V4.85061C4.22969 4.02092 1.65703 1.46233 1.62969 1.43498C1.54584 1.35039 1.43956 1.29152 1.32337 1.2653C1.20719 1.23908 1.08593 1.24661 0.973873 1.287C0.861821 1.32739 0.763642 1.39895 0.6909 1.49327C0.618157 1.58758 0.57388 1.70072 0.563281 1.81936C0.226562 5.55295 1.31094 8.05139 2.28203 9.48967C2.75553 10.2007 3.33155 10.8378 3.99141 11.3803C2.80156 12.7498 0.928125 13.4694 0.907812 13.4772C0.81962 13.5102 0.740032 13.5627 0.674996 13.6308C0.60996 13.699 0.561158 13.7809 0.532235 13.8705C0.503312 13.9601 0.495016 14.0551 0.507968 14.1484C0.52092 14.2417 0.554784 14.3308 0.607031 14.4092C0.665624 14.4967 0.9 14.8037 1.47266 15.0905C2.18047 15.4451 3.11562 15.6248 4.25 15.6248C9.77109 15.6248 14.3844 11.3733 14.8555 5.90295L17.1922 3.56701C17.2796 3.47956 17.339 3.36815 17.3631 3.24689C17.3872 3.12563 17.3747 2.99995 17.3273 2.88576ZM13.8117 5.18342C13.7046 5.29084 13.6401 5.43357 13.6305 5.58498C13.3125 10.5139 9.19375 14.3748 4.25 14.3748C3.425 14.3748 2.84375 14.2655 2.43594 14.1342C3.33516 13.6459 4.58906 12.8061 5.39531 11.5967C5.44263 11.5256 5.47487 11.4455 5.49005 11.3615C5.50522 11.2774 5.503 11.1911 5.48352 11.108C5.46405 11.0248 5.42773 10.9465 5.37682 10.8779C5.32591 10.8093 5.26147 10.7519 5.1875 10.7092C5.15078 10.6881 1.75703 8.65139 1.75 3.2092C3 4.22483 5.28516 5.80061 7.89609 6.23967C7.98558 6.25476 8.07727 6.25018 8.16481 6.22625C8.25234 6.20232 8.33362 6.15962 8.40298 6.10111C8.47235 6.0426 8.52814 5.96968 8.56648 5.88743C8.60482 5.80518 8.62479 5.71557 8.625 5.62483V4.37483C8.6243 4.04143 8.69029 3.71126 8.81909 3.40374C8.94789 3.09623 9.1369 2.81758 9.375 2.5842C9.60325 2.35553 9.87502 2.17493 10.1743 2.05309C10.4735 1.93125 10.7941 1.87063 11.1172 1.87483C12.1062 1.88733 13.0305 2.49045 13.4172 3.37561C13.4659 3.48689 13.5461 3.58156 13.6478 3.64802C13.7495 3.71448 13.8683 3.74986 13.9898 3.74983H15.2398L13.8117 5.18342Z" fill="#4E616B"/>
</svg>
